<svg width="30" height="30" viewBox="0 0 30 30" fill="none" xmlns="http://www.w3.org/2000/svg">
<path d="M21.5 10.6667C21.5 8.94284 20.8152 7.28954 19.5962 6.07055C18.3772 4.85157 16.7239 4.16675 15 4.16675C13.2761 4.16675 11.6228 4.85157 10.4038 6.07055C9.18482 7.28954 8.5 8.94284 8.5 10.6667C8.5 18.2501 5.25 20.4167 5.25 20.4167H24.75C24.75 20.4167 21.5 18.2501 21.5 10.6667Z" stroke="#070707" stroke-width="2" stroke-linecap="round" stroke-linejoin="round"/>
<path d="M16.8742 24.75C16.6837 25.0783 16.4104 25.3509 16.0814 25.5403C15.7525 25.7298 15.3796 25.8295 15 25.8295C14.6204 25.8295 14.2475 25.7298 13.9186 25.5403C13.5897 25.3509 13.3163 25.0783 13.1259 24.75" stroke="#070707" stroke-width="2" stroke-linecap="round" stroke-linejoin="round"/>
</svg>
