<svg width="14" height="16" viewBox="0 0 14 16" fill="none" xmlns="http://www.w3.org/2000/svg">
<path d="M10 3.33333L9.63333 3.79167C9.28333 4.225 8.81667 4.41667 8.35 4.41667C7.5 4.41667 6.66667 3.76667 6.66667 2.75V0C6.66667 0 0 3.33333 0 9.16667C0 12.85 2.98333 15.8333 6.66667 15.8333C10.35 15.8333 13.3333 12.85 13.3333 9.16667C13.3333 6.7 11.9917 4.48333 10 3.33333ZM6.66667 14.1667C5.75 14.1667 5 13.4417 5 12.55C5 12.125 5.16667 11.725 5.48333 11.4167L6.66667 10.25L7.85833 11.4167C8.16667 11.725 8.33333 12.125 8.33333 12.55C8.33333 13.4417 7.58333 14.1667 6.66667 14.1667ZM9.96667 12.9167C10 12.6167 10.15 11.3417 9.025 10.2333L6.66667 7.91667L4.30833 10.2333C3.175 11.35 3.33333 12.6333 3.36667 12.9167C2.325 12 1.66667 10.6583 1.66667 9.16667C1.66667 6.53333 3.44167 4.45833 5.025 3.125C5.21667 4.78333 6.63333 6.08333 8.35 6.08333C9 6.08333 9.63333 5.89167 10.1667 5.53333C11.1167 6.48333 11.6667 7.79167 11.6667 9.16667C11.6667 10.6583 11.0083 12 9.96667 12.9167Z" fill="white"/>
</svg>
