<svg width="22" height="20" viewBox="0 0 22 20" fill="none" xmlns="http://www.w3.org/2000/svg">
<path d="M13.9756 0.18429C15.2565 -0.127426 16.602 -0.0423919 17.833 0.429407C19.0639 0.901221 20.1218 1.73697 20.8662 2.82491C21.6098 3.91184 22.0054 5.19944 22 6.51632L21.9951 6.7712C21.8877 9.38418 20.1466 11.2838 18.707 12.7234C18.7032 12.7272 18.6992 12.7313 18.6953 12.7351L13.2178 18.0329C12.9463 18.3315 12.6181 18.5734 12.251 18.7419C11.8642 18.9194 11.4441 19.0126 11.0186 19.0153C10.5929 19.018 10.1712 18.9302 9.78223 18.7575C9.40657 18.5907 9.07 18.3479 8.79199 18.0456L3.30469 12.7341C3.30088 12.7304 3.29672 12.7271 3.29297 12.7234C1.80786 11.2382 0.000195798 9.27179 0 6.51632C2.41399e-05 5.20119 0.399348 3.91636 1.14453 2.83273C1.88969 1.74926 2.94595 0.917616 4.17383 0.446985C5.40185 -0.0236847 6.74391 -0.110997 8.02246 0.196985C9.14361 0.467109 10.1697 1.02983 10.998 1.82394C11.8248 1.02441 12.8525 0.457676 13.9756 0.18429ZM2 6.51632C2.00019 8.36029 3.19247 9.79372 4.70703 11.3083H4.70605L10.2031 16.6296L10.2539 16.6814C10.3484 16.7871 10.4642 16.8719 10.5938 16.9294C10.7234 16.9869 10.864 17.0162 11.0059 17.0153C11.1477 17.0144 11.288 16.9837 11.417 16.9245C11.5458 16.8654 11.6608 16.7795 11.7539 16.6726L11.8125 16.6101L17.293 11.3083L17.8438 10.7439C19.0864 9.42816 19.9998 8.12171 20 6.51632V6.51144C20.0043 5.59945 19.7307 4.70753 19.2158 3.9548C18.7009 3.2021 17.9687 2.62403 17.1172 2.29757C16.2656 1.97116 15.3344 1.91101 14.4482 2.12667C13.5621 2.34238 12.7626 2.82334 12.1562 3.5046C12.1508 3.51074 12.1453 3.51715 12.1396 3.52316C11.9937 3.67917 11.817 3.80335 11.6211 3.88839C11.4251 3.97344 11.2136 4.0173 11 4.0173C10.7864 4.0173 10.5749 3.97344 10.3789 3.88839C10.183 3.80335 10.0063 3.67917 9.86035 3.52316C9.85594 3.51844 9.85198 3.51331 9.84766 3.50851C9.23911 2.83128 8.43887 2.35454 7.55371 2.14132C6.66861 1.92813 5.73977 1.98836 4.88965 2.31417C4.03948 2.64002 3.30789 3.21631 2.79199 3.96652C2.27623 4.71666 2.00002 5.60597 2 6.51632Z" fill="url(#paint0_linear_1003_1455)"/>
<defs>
<linearGradient id="paint0_linear_1003_1455" x1="-0.268141" y1="18.612" x2="21.9189" y2="14.8553" gradientUnits="userSpaceOnUse">
<stop stop-color="#C229C0"/>
<stop offset="1" stop-color="#FC4B6A"/>
</linearGradient>
</defs>
</svg>
