<svg width="14" height="14" viewBox="0 0 14 14" fill="none" xmlns="http://www.w3.org/2000/svg">
<path d="M4.51333 1.22667C5.04667 0.493333 5.87333 0 6.83333 0C7.79333 0 8.62 0.493333 9.16 1.22667C10.0533 1.08667 10.9867 1.32 11.6667 2C12.3467 2.68 12.58 3.61333 12.44 4.51333C13.1733 5.04667 13.6667 5.87333 13.6667 6.83333C13.6667 7.79333 13.1733 8.62 12.44 9.15333C12.58 10.0467 12.3467 10.9867 11.6667 11.6667C10.9867 12.3467 10.0533 12.58 9.16 12.44C8.62667 13.1733 7.79333 13.6667 6.83333 13.6667C5.87333 13.6667 5.04667 13.1733 4.51333 12.44C3.62 12.58 2.68 12.3467 2 11.6667C1.32667 10.9867 1.08667 10.0533 1.22667 9.15333C0.5 8.62 0 7.79333 0 6.83333C0 5.87333 0.5 5.04667 1.22667 4.51333C1.08667 3.61333 1.32 2.68 2 2C2.68 1.32 3.62 1.08667 4.51333 1.22667ZM6.83333 1.33333C6.26667 1.33333 5.72667 1.68667 5.42 2.28667L5.16667 2.8L4.62 2.62C3.98 2.40667 3.34667 2.54 2.94667 2.94667C2.54667 3.34667 2.41333 3.97333 2.62 4.62L2.8 5.16L2.28667 5.42C1.68667 5.72667 1.33333 6.26667 1.33333 6.83333C1.33333 7.4 1.68667 7.94 2.28667 8.24667L2.8 8.50667L2.62 9.04667C2.41333 9.69333 2.54667 10.32 2.94667 10.72C3.34667 11.1267 3.98 11.26 4.62 11.0467L5.16667 10.8667L5.42 11.38C5.72667 11.98 6.26667 12.3333 6.83333 12.3333C7.4 12.3333 7.94 11.98 8.24667 11.38L8.50667 10.8667L9.05333 11.0467C9.69333 11.26 10.32 11.1267 10.7267 10.72C11.1267 10.32 11.26 9.68667 11.0467 9.04667L10.8733 8.50667L11.38 8.24667C11.9867 7.94 12.3333 7.4 12.3333 6.83333C12.3333 6.26667 11.9867 5.72667 11.38 5.42L10.8667 5.16L11.0467 4.62C11.26 3.97333 11.1267 3.34667 10.7267 2.94667C10.32 2.54 9.69333 2.40667 9.05333 2.62L8.50667 2.8L8.24667 2.28667C7.94 1.68667 7.4 1.33333 6.83333 1.33333ZM9.99333 5.12L5.86 9.63333L3.36667 7.14L4.30667 6.19333L5.81333 7.7L9.01333 4.21333L9.99333 5.12Z" fill="white"/>
</svg>
