<svg width="24" height="24" viewBox="0 0 24 24" fill="none" xmlns="http://www.w3.org/2000/svg">
<rect width="24" height="24" rx="12" fill="#3CBD53" fill-opacity="0.2"/>
<path d="M11.0667 15.0666L15.7667 10.3666L14.8334 9.43325L11.0667 13.1999L9.16671 11.2999L8.23337 12.2333L11.0667 15.0666ZM12 18.6666C11.0778 18.6666 10.2112 18.4916 9.40004 18.1416C8.58893 17.7916 7.88337 17.3166 7.28337 16.7166C6.68337 16.1166 6.20837 15.411 5.85837 14.5999C5.50837 13.7888 5.33337 12.9221 5.33337 11.9999C5.33337 11.0777 5.50837 10.211 5.85837 9.39992C6.20837 8.58881 6.68337 7.88325 7.28337 7.28325C7.88337 6.68325 8.58893 6.20825 9.40004 5.85825C10.2112 5.50825 11.0778 5.33325 12 5.33325C12.9223 5.33325 13.7889 5.50825 14.6 5.85825C15.4112 6.20825 16.1167 6.68325 16.7167 7.28325C17.3167 7.88325 17.7917 8.58881 18.1417 9.39992C18.4917 10.211 18.6667 11.0777 18.6667 11.9999C18.6667 12.9221 18.4917 13.7888 18.1417 14.5999C17.7917 15.411 17.3167 16.1166 16.7167 16.7166C16.1167 17.3166 15.4112 17.7916 14.6 18.1416C13.7889 18.4916 12.9223 18.6666 12 18.6666ZM12 17.3333C13.4889 17.3333 14.75 16.8166 15.7834 15.7833C16.8167 14.7499 17.3334 13.4888 17.3334 11.9999C17.3334 10.511 16.8167 9.24992 15.7834 8.21659C14.75 7.18325 13.4889 6.66659 12 6.66659C10.5112 6.66659 9.25004 7.18325 8.21671 8.21659C7.18337 9.24992 6.66671 10.511 6.66671 11.9999C6.66671 13.4888 7.18337 14.7499 8.21671 15.7833C9.25004 16.8166 10.5112 17.3333 12 17.3333Z" fill="#3CBD53"/>
</svg>
